<?xml version="1.0" encoding="UTF-8"?>
<svg id="Layer_1" data-name="Layer 1" xmlns="http://www.w3.org/2000/svg" viewBox="0 0 1475.33 450">
  <path d="M301.23,430.84c-12.44,.54-24.92,.67-37.32,1.74-11.94,1.03-21.12-2.5-27.56-12.91-2.02-3.26-5.03-5.89-7.47-8.9-2.51-3.09-5.55-4.44-9.63-4.63-9.45-.45-16.34-10.73-13.5-19.62,.44-1.39,.91-2.77,1.41-4.14,2.87-7.87,2.52-8.33-4.06-13.72-19.52-15.96-38.9-32.08-58.34-48.13-5.61-4.62-10.98-9.61-16.97-13.66-6.71-4.54-10.34-10.81-13.04-18.09-4.28-11.51-8.95-22.87-13.13-34.42-.86-2.38-1.06-5.59-.21-7.92,10.24-28.12,20.63-56.18,31.22-84.16,3.02-7.98,4.57-15.64,3.31-24.43-2.92-20.49-4.55-41.17-6.91-61.75-.88-7.7-2.26-15.36-3.54-23.01-.91-5.42,.48-9.55,4.95-13.21,7.49-6.15,14.37-13.04,21.73-19.36,5.28-4.54,7.2-4.26,11.55,1.03,16.04,19.45,32.03,38.94,48.03,58.43,8.1,9.87,15.9,20,24.37,29.55,3.3,3.72,7.72,6.87,12.22,9.05,11.5,5.56,23.24,10.64,35.09,15.4,2.82,1.13,6.85,1.25,9.65,.14,11.11-4.43,21.81-9.9,32.95-14.25,7.13-2.78,12.23-7.44,16.9-13.18,14.79-18.18,29.76-36.22,44.67-54.31,8.64-10.48,17.26-20.98,25.95-31.41,3.84-4.61,5.51-4.91,10.03-.97,8.4,7.33,16.82,14.69,24.64,22.62,1.96,1.99,2.65,6.28,2.32,9.34-3.35,31.52-7.07,63.01-10.57,94.51-.24,2.17,0,4.59,.72,6.65,4.58,13.13,9.29,26.22,14.1,39.27,5.59,15.17,11.42,30.26,16.97,45.45,2.75,7.51,3.04,15.29,.24,22.82-4.62,12.42-9.57,24.72-14.54,37.01-.63,1.56-1.98,2.97-3.3,4.09-11.35,9.61-22.73,19.19-34.19,28.66-16.31,13.48-32.63,26.94-49.11,40.21-3.91,3.15-4.4,6.39-2.26,10.52,.37,.72,.69,1.47,.99,2.21,4.6,11.32-1.42,21.28-13.61,22.99-2.54,.36-5.51,1.42-7.23,3.18-5.19,5.31-9.95,11.04-14.68,16.77-2.78,3.36-5.98,5.14-10.45,5.02-7.44-.19-14.89-.05-22.34-.05,0-.14-.01-.28-.02-.42ZM170.85,231.44c-1.04,.96-2.69,1.96-3.64,3.42-12.08,18.53-24,37.16-36.11,55.67-2.27,3.48-1.77,5.16,2.31,5.99,8.08,1.64,16.13,3.4,24.18,5.13,22.76,4.88,45.52,9.76,68.27,14.67,2.97,.64,4.94-.02,6.03-3.14,6.09-17.38,12.25-34.73,18.46-52.07,1.3-3.64,.52-5.61-3.45-6.79-23.85-7.11-47.65-14.41-71.46-21.64-1.23-.37-2.49-.67-4.61-1.25Zm276.06,63.32c-2.08-4.04-3.38-7.18-5.2-9.99-10.53-16.26-21.28-32.37-31.72-48.69-2.39-3.74-4.76-4.93-9.13-3.53-13.69,4.4-27.5,8.45-41.26,12.63-10.05,3.06-20.1,6.13-30.17,9.14-3.28,.98-5.06,2.47-3.68,6.31,5.7,15.82,11.28,31.67,16.85,47.54,1.04,2.97,2.77,3.82,5.93,3.3,29.52-4.86,59.06-9.57,88.59-14.39,2.96-.48,5.86-1.38,9.79-2.33Zm-160,13.66c4.1,0,7.34-.05,10.57,.01,3.23,.06,5.07-1.23,5.7-4.59,.71-3.81,1.87-7.53,2.81-11.29,6.18-24.6,12.31-49.22,18.57-73.8,.88-3.44,.08-5.66-2.75-7.93-9.84-7.86-19.48-15.96-29.12-24.07-2.92-2.46-5.34-2.81-8.47-.12-8.45,7.26-16.83,14.67-25.83,21.19-6.07,4.4-7.44,9.11-5.61,16.09,6.21,23.74,11.85,47.64,18.08,71.37,4.27,16.26,1.02,12.65,16.06,13.12ZM410.95,36.09c-2.07,2.01-3.24,2.95-4.18,4.08-7.95,9.56-15.88,19.15-23.79,28.75-12.84,15.59-25.71,31.15-38.37,46.89-1,1.24-1.33,4.23-.53,5.53,6.04,9.93,12.3,19.74,18.86,29.34,1.1,1.61,3.94,2.84,5.98,2.85,5.15,.02,10.3-1,15.46-1.13,4.99-.12,6.86-2.41,7.72-7.24,6.12-34.38,12.54-68.71,18.81-103.07,.26-1.45,.03-2.99,.03-6Zm-243.13-.18l-2.63,1.91c.21,2.02,.29,4.06,.66,6.05,2.46,13.19,5.05,26.36,7.46,39.56,3.86,21.17,7.66,42.35,11.37,63.54,.56,3.21,2.02,4.85,5.34,5.09,5.97,.43,11.92,1.38,17.89,1.4,2.08,0,4.88-1.56,6.11-3.29,4.67-6.59,8.8-13.55,13.19-20.34,7.68-11.89,8.69-9.5-.63-20.63-18.47-22.06-36.49-44.5-54.64-66.82-1.6-1.97-2.76-4.3-4.13-6.46Zm157.73,208.14c.44,.85,.75,2.43,1.59,2.79,1,.44,2.5,.02,3.69-.35,22.28-6.77,44.53-13.62,66.81-20.38,4.04-1.22,3.58-3.41,1.77-6.16-6.55-10-13.17-19.96-19.58-30.05-2.43-3.83-4.85-3.18-7.99-1.04-11.62,7.91-23.36,15.64-34.96,23.57-1.78,1.22-3.89,2.92-4.44,4.81-2.53,8.69-4.55,17.52-6.88,26.81Zm112.36,61.78c-.23-.5-.46-1-.7-1.5-4.23,.57-8.49,1.01-12.7,1.72-24.24,4.07-48.46,8.3-72.73,12.23-4.14,.67-4.91,2.47-3.67,5.88,4.51,12.47,9.03,24.93,13.65,37.36,1.95,5.25,2.63,5.38,7.04,1.76,22.14-18.12,44.26-36.25,66.36-54.41,1.04-.86,1.83-2.02,2.74-3.04Zm-190.84-58.76c3.83,.52,4.05-1.1,3.38-3.69-2.08-8.14-3.96-16.32-6.11-24.44-.42-1.59-1.32-3.47-2.6-4.37-12.68-8.89-25.51-17.59-38.25-26.39-2.92-2.02-5.07-1.32-6.88,1.47-6.61,10.14-13.17,20.3-19.87,30.38-2.25,3.39-1.53,5.12,2.31,6.26,14.24,4.25,28.43,8.63,42.64,12.98,8.65,2.65,17.29,5.32,25.38,7.81Zm185.37-112.08c.52-.17,1.03-.35,1.55-.52,.31-2.5,.63-5,.91-7.5,2.78-25.05,5.66-50.09,8.17-75.17,.24-2.43-1.19-5.71-2.95-7.52-4.49-4.62-9.56-8.67-14.47-12.88-3.66-3.14-5.2-2.74-6.05,1.87-3.45,18.58-6.83,37.18-10.01,55.8-.38,2.22,.03,4.97,1.05,6.96,5.83,11.34,11.93,22.55,18.03,33.75,1.02,1.87,2.5,3.48,3.77,5.21Zm-144.85,289.72s0-.05,0-.07c6.96,0,13.92,0,20.88,0,19.42-.02,14.75,2.19,28.08-12.25,.33-.36,.79-.66,.97-1.08,.52-1.26,.92-2.56,1.36-3.85-1.18-.38-2.37-1.11-3.54-1.09-6.14,.11-12.29,.29-18.41,.68-6.55,.42-11.05-2.12-14.13-8.03-3.21-6.15-6.86-12.09-10.62-17.93-3.16-4.9-4.91-4.79-7.96,0-4.25,6.69-8.51,13.37-12.61,20.14-2.2,3.62-5.19,5.79-9.42,5.87-6.94,.14-13.88,.06-20.82,.2-1.17,.02-2.32,.65-3.49,1,.4,1.14,.54,2.49,1.26,3.37,2.46,3,5.26,5.71,7.66,8.74,2.68,3.37,6.02,4.41,10.21,4.33,10.19-.18,20.39-.06,30.58-.06ZM143.48,136.23c1.33-1.57,2.19-2.29,2.68-3.2,5.52-10.24,10.71-20.68,16.56-30.73,3.69-6.34,4.95-12.33,3.29-19.73-3.61-16.08-6.22-32.39-9.28-48.6-1.03-5.48-2.01-5.85-6.34-2.2-4.32,3.65-8.24,7.8-12.76,11.17-3.78,2.81-4.69,6.02-4.18,10.47,2.98,26.03,5.77,52.09,8.68,78.13,.15,1.31,.73,2.58,1.35,4.69Zm191.77,263.3s0-.02,0-.03c6.31,0,12.62-.14,18.92,.05,4.39,.13,7.48-2.21,8.61-5.75,.61-1.9-1.31-4.96-2.72-7.07-2.14-3.2-4.88-6.01-7.3-9.03-8.16-10.22-16.3-20.45-24.44-30.69-2.04-2.57-4.22-4.27-7.1-1.06-7.45,8.29-14.96,16.52-22.2,24.98-.92,1.07-1.04,3.81-.33,5.12,3.63,6.65,7.43,13.24,11.69,19.5,1.3,1.9,4.17,3.6,6.46,3.8,6.1,.52,12.27,.18,18.42,.18Zm-95.06,.01s0-.01,0-.02c5.65,0,11.32-.3,16.95,.09,5.35,.37,8.27-1.93,10.49-6.6,2.49-5.23,5.37-10.35,8.75-15.04,2.42-3.36,2.1-5.62-.46-8.44-6.93-7.65-13.73-15.41-20.56-23.16-2.49-2.82-4.69-2.85-7.12,.2-10.76,13.5-21.69,26.86-32.3,40.47-1.45,1.86-2.44,5.1-1.9,7.26,.85,3.41,3.77,5.37,7.75,5.27,6.13-.15,12.27-.04,18.41-.04Zm-100.49-93.97c-.37,.64-.74,1.27-1.11,1.91,1.11,.67,2.3,1.24,3.31,2.04,5.03,4.04,10.02,8.13,15,12.23,17.1,14.08,34.2,28.17,51.3,42.25,2.99,2.46,4.86,1.64,6.09-1.9,3.67-10.54,7.53-21.01,11.12-31.58,2.23-6.57,1.98-6.82-4.71-8.25-25.47-5.44-50.95-10.85-76.43-16.24-1.49-.31-3.04-.32-4.56-.47Zm179.38,31.01c-.64-1.09-1.11-2.13-1.79-3-4.09-5.2-8.09-10.5-12.46-15.46-1.2-1.36-3.53-2.33-5.37-2.4-7.43-.27-14.88-.39-22.29,.04-2.41,.14-5.31,1.58-6.95,3.38-4.01,4.39-7.37,9.36-11.08,14.04-2,2.53-2.21,4.62,.23,7.19,8.22,8.67,16.31,17.46,24.3,26.34,2.91,3.23,5.52,3.57,8.5,.31,8.39-9.18,16.8-18.32,25.17-27.52,.73-.8,1.14-1.88,1.75-2.91ZM141.43,163.63c-.65,.02-1.3,.04-1.94,.05-9.72,26.1-19.45,52.19-29.29,78.61,1.76,.26,2.3,.51,2.69,.37,15.83-5.64,31.66-11.3,47.48-16.98,2.84-1.02,2.83-2.98,1.93-5.48-6.04-16.71-11.98-33.46-18.01-50.18-.79-2.19-1.89-4.26-2.85-6.39Zm294.96-1.12c-1.38,1.71-1.93,2.13-2.13,2.67-6.73,18.5-13.4,37.02-20.14,55.52-1.12,3.09,.42,4.53,3.02,5.47,14.58,5.27,29.14,10.56,43.75,15.75,1.05,.37,2.37,0,3.57-.03-.04-1.22,.2-2.53-.17-3.64-1.23-3.67-2.72-7.25-4.04-10.9-5.5-15.17-10.93-30.35-16.46-45.51-2.24-6.13-4.66-12.2-7.4-19.34Zm-230.29-1.09c-1.82-.52-2.98-1.04-4.18-1.17-16.56-1.73-33.12-3.44-49.69-5.07-4.99-.49-5.93,.68-4.22,5.42,6.18,17.18,12.45,34.32,18.78,51.45,.51,1.39,1.69,2.54,2.56,3.8,1.3-1.06,2.95-1.88,3.84-3.21,10.2-15.34,20.3-30.75,30.37-46.17,.93-1.42,1.54-3.04,2.55-5.06Zm200.56,56.28c1.63-3.38,2.75-5.29,3.5-7.33,6.21-16.84,12.37-33.7,18.51-50.57,1.51-4.14,.45-5.2-4.62-4.69-15.78,1.61-31.55,3.24-47.33,4.88-6.16,.64-6.74,1.95-3.35,7.14,8.84,13.54,17.65,27.09,26.5,40.62,1.92,2.93,3.95,5.78,6.79,9.94Zm-109.25-37.7c.95,1.56,1.17,2.23,1.63,2.61,9.43,7.83,18.8,15.74,28.46,23.28,1.28,1,4.41,.73,6.09-.12,3.71-1.89,7.03-4.54,10.51-6.87,8.19-5.46,16.33-11,24.6-16.33,3.62-2.33,3.66-4.81,1.28-7.98-1.74-2.32-3.68-4.62-4.82-7.24-2.16-4.99-5.55-5.48-10.24-4.11-15.18,4.45-30.43,8.68-45.64,13.05-3.79,1.09-7.52,2.35-11.87,3.72Zm-18.23,2.2c-.34-.72-.67-1.44-1.01-2.16-1.26-.54-2.48-1.23-3.79-1.6-8.86-2.49-17.76-4.87-26.62-7.37-9.02-2.56-17.97-5.42-27.06-7.7-2.27-.57-5.96-.32-7.28,1.13-3.1,3.4-5.19,7.74-7.65,11.72-1.42,2.29-1.17,4.14,1.25,5.76,11.56,7.7,23.14,15.38,34.56,23.29,3.45,2.39,6.02,1.99,9.06-.57,7.91-6.66,15.96-13.15,24.01-19.64,1.38-1.11,3.01-1.91,4.53-2.85Zm42.22,87.56l-1.78,.31c-.48,1.16-1.12,2.28-1.43,3.49-2.92,11.43-5.95,22.85-8.51,34.36-.44,1.98,.59,4.86,1.91,6.58,10.05,13.05,20.3,25.94,30.57,38.81,3.75,4.7,7.73,9.23,11.61,13.84,.66-.35,1.31-.71,1.97-1.06-11.45-32.11-22.89-64.22-34.34-96.33Zm-64.5,.47c-.76-.04-1.52-.08-2.28-.12-11.34,31.99-22.68,63.97-34.02,95.96,.49,.26,.99,.52,1.48,.78,.74-.51,1.67-.87,2.21-1.55,13.55-17.06,27.17-34.07,40.45-51.33,1.49-1.94,1.92-5.51,1.4-8.04-1.97-9.64-4.49-19.17-6.9-28.72-.6-2.37-1.55-4.66-2.34-6.99Zm-134.52,17.44c.55,.12,1.1,.24,1.65,.36,11.34-17.02,22.82-33.95,33.7-51.93-1.81-.42-2.34-.73-2.71-.6-14.47,5.13-28.93,10.28-43.37,15.48-3.13,1.13-2.87,3.37-1.8,5.94,1.62,3.87,3.01,7.84,4.59,11.73,2.6,6.36,5.28,12.69,7.93,19.03Zm329.96,1.01c1.42-2.09,1.99-2.68,2.28-3.38,4.07-9.84,8.13-19.69,12.15-29.54,1.14-2.8-.35-4.2-2.83-5.07-12.93-4.57-25.84-9.21-38.81-13.69-1.58-.54-3.45-.24-6.28-.39,11.48,17.84,22.2,34.52,33.49,52.07Zm-152.47-118.57c2.26,.38,2.93,.7,3.47,.55,16.5-4.61,32.99-9.26,49.48-13.9,3.38-.95,3.34-2.76,1.64-5.4-4.72-7.33-9.29-14.76-13.95-22.13-2.71-4.3-3.6-4.28-6.97-.2-6.78,8.22-13.63,16.39-20.4,24.62-4.24,5.16-8.39,10.39-13.27,16.46Zm-25.14,1.07c.23-.45,.47-.9,.7-1.35-.46-.98-.74-2.11-1.41-2.92-10.61-13.04-21.26-26.04-31.91-39.04-2.01-2.45-3.9-1.93-5.44,.47-4.8,7.48-9.46,15.05-14.31,22.5-2.35,3.62-1.52,5.34,2.63,6.46,13.27,3.58,26.47,7.43,39.7,11.16,3.34,.94,6.69,1.82,10.04,2.72Zm-19.81-41.36c-.26,.34-.51,.67-.77,1.01,.83,1.25,1.55,2.59,2.5,3.74,9.03,10.98,18.11,21.92,27.15,32.9,4.22,5.12,5.02,5.14,9.02,.2,8.96-11.04,17.96-22.04,26.91-33.09,.8-.98,1.31-2.19,2.5-4.22-2.33,.39-3.47,.37-4.42,.78-7.73,3.3-15.51,6.5-23.1,10.12-4.12,1.96-7.84,2.3-12.03,.35-7.92-3.67-15.96-7.08-23.98-10.55-1.21-.53-2.52-.83-3.79-1.23Zm153.52-20.95c-.54,.09-1.07,.17-1.61,.26-.61,1.4-1.49,2.75-1.77,4.21-2.08,10.75-4.03,21.53-6.05,32.3-.7,3.76,.93,5.05,4.53,4.63,7.04-.82,14.09-1.62,21.15-2.28,3.82-.36,4.81-1.7,2.85-5.28-4.17-7.63-7.96-15.45-12.15-23.07-2.05-3.74-4.62-7.19-6.96-10.77Zm-238.7-.36c-1.27,.97-2.1,1.3-2.46,1.91-6.37,11.03-12.75,22.06-18.97,33.17-1.56,2.78-.14,4.13,2.84,4.41,7.07,.66,14.13,1.51,21.2,2.18,4.84,.46,5.7-.59,4.81-5.53-1.79-10.01-3.55-20.03-5.42-30.03-.36-1.93-1.22-3.76-2-6.1Z"/>
  <g>
    <path d="M735.09,242.53c.03-23.88,5.29-46.36,18.65-66.36,19.71-29.5,48.42-44.71,82.93-47.88,39.66-3.64,74.46,7.71,101.36,38.71,15.03,17.32,22.06,38.02,24.55,60.26,3.19,28.45-.78,55.81-16.33,80.51-20.29,32.24-50.84,47.53-87.79,50.49-32.22,2.58-61.63-5.92-86.34-27.32-26.82-23.22-36.82-53.87-37.04-88.41Zm50.98,7.47c.38,18.27,8.78,40.41,32.59,53.45,39.23,21.48,85.03-1.13,92.84-45.2,5.73-32.35-6.36-61.97-30.7-75.21-44.67-24.3-94.63,6.95-94.73,66.96Z"/>
    <path d="M1374.48,357.84c-3.81,.46-6.22,1-8.62,1-13.59,0-27.19,.25-40.75-.44-3.46-.18-7.91-2.6-9.93-5.41-8.65-12.06-16.54-24.66-24.74-37.05-3.49-5.28-7.05-10.52-11.67-17.39-3.77,5.66-6.82,9.88-9.51,14.32-8.09,13.37-16.23,26.71-23.92,40.31-2.57,4.54-5.91,5.76-10.65,5.71-10-.12-20,.02-29.99,.08-9.27,.05-9.91-.48-9.91-10.12-.02-65.89-.09-131.78,.08-197.66,.05-18.79-4.18-17.88,18.11-17.84,7.18,.01,14.38,.36,21.53-.1,6.88-.44,8.8,2.41,8.76,8.96-.19,36.91-.07,73.83,.02,110.74,0,3.94,.46,7.87,.7,11.81l1.96,.5c1.83-2.87,3.85-5.64,5.47-8.63,21.12-38.94,42.11-77.96,63.44-116.8,1.57-2.86,5.45-6.17,8.37-6.29,15.61-.62,31.26-.31,46.9-.25,.91,0,1.83,.62,4,1.4-3.15,5.66-5.95,10.95-8.98,16.1-17.83,30.22-35.5,60.54-53.71,90.53-4.86,8.01-5.11,14.08,.47,22.14,19.83,28.64,38.83,57.85,58.12,86.87,1.35,2.03,2.49,4.19,4.45,7.51Z"/>
    <path d="M546.75,133.73c31.19,.53,23.29-4.99,35.19,22.41,14.69,33.83,28.36,68.1,42.75,102.05,1.19,2.81,4.53,6.43,6.96,6.5,2.31,.07,5.82-3.59,6.96-6.36,15.92-38.59,31.64-77.26,47.08-116.05,2.46-6.17,5.7-8.86,12.49-8.58,11.26,.46,22.56,.17,33.84,0,6.39-.1,7.45,2.44,5.16,8.08-27.27,67.19-54.87,134.26-81.2,201.82-4.99,12.79-11.42,16.3-24.11,15.52-19.41-1.19-15.71,2.08-23.2-15.8-20.47-48.89-40.33-98.04-60.39-147.1-7.37-18.02-14.68-36.06-21.95-54.12-2.69-6.68-1.65-8.2,5.51-8.35,5.64-.11,11.28-.02,14.92-.02Z"/>
    <path d="M1165.16,255c0,9.48-.25,18.97,.05,28.44,.91,29.11-12.1,50.93-36.99,64.31-36.04,19.36-72.63,18.24-107.29-3.97-21.33-13.67-31.63-34.26-31.51-59.84,.1-21.52,.22-43.05-.09-64.57-.1-6.64,2.07-9.29,8.81-9.03,9.47,.37,18.96,.07,28.44,.11,9.57,.04,10.12,.52,10.14,9.9,.04,19.22-.1,38.44-.01,57.65,.1,21.01,7.14,31.12,25.51,37.08,18.58,6.03,41.61,.21,50.74-14.07,3.37-5.28,5.08-12.41,5.28-18.77,.67-20.73,.51-41.51,.21-62.26-.11-7.41,2.62-10.05,9.95-9.68,9.71,.48,19.47,.38,29.2,.08,5.77-.18,7.73,2.23,7.65,7.73-.19,12.3-.06,24.6-.06,36.9h-.04Z"/>
    <path d="M1077.11,177.31c-26.13,0-52.25-.19-78.38,.13-6.9,.09-9.86-1.83-9.46-9.09,.49-8.94,.33-17.93,.08-26.88-.17-5.76,1.77-8.35,7.91-8.34,53.28,.15,106.55,.17,159.83,.04,5.89-.02,8.37,1.84,8.16,7.95-.31,9.21-.31,18.45,.11,27.65,.32,6.89-2.62,8.76-9.11,8.69-26.38-.26-52.76-.11-79.14-.11,0-.01,0-.03,0-.04Z"/>
  </g>
</svg>